<svg width="32" height="32" viewBox="0 0 32 32" fill="none" xmlns="http://www.w3.org/2000/svg">
<rect width="32" height="32" rx="4" fill="white"/>
<g clip-path="url(#clip0_15738_14326)">
<path d="M79.0218 23.4618V12.82H81.8686V23.4608L79.0218 23.4618ZM78.7726 9.68326C78.7726 8.68568 79.4585 8.02063 80.4552 8.02063C81.4518 8.02063 82.1604 8.68568 82.1604 9.68326C82.1604 10.6591 81.4527 11.3251 80.4552 11.3251C79.4576 11.3251 78.7726 10.66 78.7726 9.68326ZM67.8788 23.4608V8.49811H70.7257V17.1021H70.8299L74.9036 12.82H77.9579L74.0509 17.1428V17.2262L78.1654 23.4608H75.0485L72.0766 18.9514H71.9933L70.7257 20.2606V23.4608H67.8788ZM61.1933 23.6077C57.8888 23.6077 55.6862 21.4249 55.6862 18.1622C55.6862 14.8786 57.8888 12.676 61.1933 12.676C64.5185 12.676 66.7212 14.8786 66.7212 18.1622C66.7212 21.4249 64.4977 23.6077 61.1933 23.6077ZM58.5956 18.1622C58.5956 20.2616 59.5306 21.4666 61.1933 21.4666C62.835 21.4666 63.8118 20.2616 63.8118 18.1622C63.8118 16.0212 62.8559 14.8161 61.1933 14.8161C59.5306 14.8161 58.5956 16.0221 58.5956 18.1622ZM44.8417 23.4618V12.8219H47.5644V14.3803H47.6478C48.3962 13.2785 49.5596 12.6751 50.9929 12.6751C53.4248 12.6751 54.754 14.2761 54.754 17.4138V23.4618H51.8873V17.4138C51.8873 15.7104 51.2431 14.9203 49.8087 14.9203C48.3536 14.9203 47.6895 15.7104 47.6895 17.4138V23.4618H44.8417ZM33.3567 23.4608V8.914H43.2065V11.2616H36.2869V14.9611H42.7916V17.3295H36.2869V21.1123H43.3941V23.4608H33.3567ZM15.5462 4C13.9603 4 12.6738 5.29979 12.6738 6.90274V8.39105C12.6738 9.13189 12.0741 9.73253 11.3333 9.73253H9.87337C8.28653 9.73253 7 11.0314 7 12.6343V12.6627C6.99963 13.0402 7.07369 13.414 7.21796 13.7628C7.36223 14.1116 7.57387 14.4285 7.84076 14.6953C8.10765 14.9622 8.42456 15.1739 8.77334 15.3181C9.12212 15.4624 9.49593 15.5365 9.87337 15.5361C11.4593 15.5361 12.7458 14.2373 12.7458 12.6343V11.1451C12.7458 10.4052 13.3464 9.80453 14.0863 9.80453H24.3747C24.7726 9.80453 25.0947 9.47863 25.09 9.08074L25.036 4.70674C25.0338 4.51852 24.9574 4.33877 24.8235 4.20647C24.6896 4.07417 24.509 3.99999 24.3207 4H15.5462Z" fill="#141221"/>
<path d="M7.00095 21.9214C7.00095 20.3184 8.28653 19.0186 9.87337 19.0186H11.2613C12.0021 19.0186 12.6018 18.4189 12.6018 17.6781V16.1888C12.6018 14.5868 13.8883 13.2871 15.4752 13.2871H24.3842C24.7783 13.2871 25.0985 13.6073 25.0985 14.0023V18.3763C25.0985 18.566 25.0232 18.7479 24.889 18.8821C24.7549 19.0162 24.573 19.0916 24.3833 19.0916H14.0873C13.3474 19.0916 12.7467 19.6913 12.7467 20.4321V21.9214C12.7467 23.5234 11.4602 24.8232 9.87432 24.8232C9.49688 24.8235 9.12307 24.7495 8.77428 24.6052C8.4255 24.4609 8.1086 24.2493 7.8417 23.9824C7.57481 23.7155 7.36318 23.3986 7.21891 23.0498C7.07464 22.701 7.00057 22.3272 7.00095 21.9498V21.9214Z" fill="#141221"/>
<path d="M15.4752 22.5741C13.8883 22.5741 12.6018 23.8729 12.6018 25.4759C12.6018 25.857 12.6769 26.2345 12.8228 26.5866C12.9687 26.9387 13.1825 27.2586 13.452 27.5281C13.7216 27.7976 14.0416 28.0113 14.3938 28.1571C14.7459 28.3028 15.1234 28.3778 15.5045 28.3777H18.3353C19.1049 28.3777 19.8429 28.072 20.3871 27.5278C20.9313 26.9836 21.2371 26.2455 21.2371 25.4759C21.2371 24.7063 20.9313 23.9682 20.3871 23.424C19.8429 22.8798 19.1049 22.5741 18.3353 22.5741H15.4752Z" fill="#141221"/>
</g>
<defs>
<clipPath id="clip0_15738_14326">
<rect width="18" height="24.6316" fill="white" transform="translate(7 4)"/>
</clipPath>
</defs>
</svg>
