<svg width="256" height="256" viewBox="0 0 256 256" fill="none" xmlns="http://www.w3.org/2000/svg">
<rect width="256" height="256" rx="32" fill="white"/>
<g clip-path="url(#clip0_15740_14330)">
<path d="M632.174 187.694V102.56H654.949V187.687L632.174 187.694ZM630.181 77.4661C630.181 69.4855 635.668 64.1651 643.641 64.1651C651.614 64.1651 657.283 69.4855 657.283 77.4661C657.283 85.2724 651.622 90.6004 643.641 90.6004C635.661 90.6004 630.181 85.28 630.181 77.4661ZM543.031 187.687V67.9848H565.806V136.817H566.639L599.229 102.56H623.663L592.408 137.143V137.81L625.323 187.687H600.388L576.613 151.611H575.946L565.806 162.085V187.687H543.031ZM489.546 188.861C463.111 188.861 445.49 171.4 445.49 145.298C445.49 119.029 463.111 101.408 489.546 101.408C516.148 101.408 533.769 119.029 533.769 145.298C533.769 171.4 515.981 188.861 489.546 188.861ZM468.765 145.298C468.765 162.093 476.245 171.733 489.546 171.733C502.68 171.733 510.494 162.093 510.494 145.298C510.494 128.169 502.847 118.529 489.546 118.529C476.245 118.529 468.765 128.177 468.765 145.298ZM358.733 187.694V102.575H380.515V115.043H381.182C387.17 106.228 396.477 101.4 407.944 101.4C427.399 101.4 438.032 114.209 438.032 139.31V187.694H415.098V139.31C415.098 125.683 409.944 119.363 398.47 119.363C386.829 119.363 381.516 125.683 381.516 139.31V187.694H358.733ZM266.854 187.687V71.312H345.652V90.0926H290.296V119.688H342.333V138.636H290.296V168.899H347.153V187.687H266.854ZM124.37 32C111.683 32 101.39 42.3983 101.39 55.2219V67.1284C101.39 73.0552 96.5929 77.8602 90.6661 77.8602H78.987C66.2922 77.8602 56 88.251 56 101.075V101.302C55.997 104.321 56.5896 107.312 57.7437 110.102C58.8978 112.892 60.5909 115.428 62.7261 117.563C64.8612 119.698 67.3964 121.391 70.1867 122.545C72.977 123.699 75.9674 124.292 78.987 124.289C91.6741 124.289 101.966 113.898 101.966 101.075V89.1604C101.966 83.2413 106.771 78.4362 112.691 78.4362H194.998C198.181 78.4362 200.758 75.8291 200.72 72.6459L200.288 37.6539C200.27 36.1482 199.659 34.7102 198.588 33.6518C197.517 32.5934 196.072 31.9999 194.566 32H124.37Z" fill="#141221"/>
<path d="M56.0076 175.371C56.0076 162.547 66.2922 152.149 78.987 152.149H90.0901C96.0168 152.149 100.814 147.352 100.814 141.425V129.511C100.814 116.695 111.107 106.296 123.801 106.296H195.074C198.227 106.296 200.788 108.858 200.788 112.019V147.011C200.788 148.528 200.185 149.984 199.112 151.057C198.039 152.13 196.584 152.733 195.066 152.733H112.698C106.779 152.733 101.974 157.53 101.974 163.457V175.371C101.974 188.187 91.6817 198.585 78.9945 198.585C75.975 198.588 72.9845 197.996 70.1943 196.842C67.404 195.687 64.8688 193.994 62.7336 191.859C60.5985 189.724 58.9054 187.189 57.7513 184.399C56.5971 181.608 56.0046 178.618 56.0076 175.598V175.371Z" fill="#141221"/>
<path d="M123.801 180.593C111.107 180.593 100.814 190.984 100.814 203.807C100.814 206.856 101.415 209.876 102.582 212.693C103.749 215.51 105.46 218.069 107.616 220.225C109.773 222.381 112.333 224.09 115.15 225.257C117.968 226.423 120.987 227.022 124.036 227.021H146.682C152.839 227.021 158.744 224.576 163.097 220.222C167.451 215.869 169.896 209.964 169.896 203.807C169.896 197.65 167.451 191.746 163.097 187.392C158.744 183.039 152.839 180.593 146.682 180.593H123.801Z" fill="#141221"/>
</g>
<defs>
<clipPath id="clip0_15740_14330">
<rect width="144" height="197.053" fill="white" transform="translate(56 32)"/>
</clipPath>
</defs>
</svg>
